<?xml version="1.0" encoding="UTF-8"?>
<svg version="1.1" xmlns="http://www.w3.org/2000/svg" width="500" height="500">
<path d="M0 0 C0.56912109 0.41217773 1.13824219 0.82435547 1.72460938 1.24902344 C8.43177829 6.1280367 14.70616772 11.39208064 20.8125 17 C21.73893311 17.84667236 21.73893311 17.84667236 22.68408203 18.71044922 C24.16447565 20.097024 25.58814628 21.54369511 27 23 C27 23.66 27 24.32 27 25 C27.56976563 25.23847656 28.13953125 25.47695312 28.7265625 25.72265625 C58.44693643 42.42121686 76.1993985 93.33376341 85.10961914 123.98388672 C101.11759115 182.19358442 89.952357 245.36676363 60.5625 297.1875 C51.65608884 312.10573869 40.95102901 325.41996947 29 338 C28.16637939 338.88461914 28.16637939 338.88461914 27.31591797 339.78710938 C14.64659233 353.1499213 0.53996261 364.15040605 -15 374 C-16.09828125 374.72509766 -16.09828125 374.72509766 -17.21875 375.46484375 C-65.75647304 406.31364307 -127.90672384 413.8137832 -183.43481445 401.61767578 C-191.09507525 399.83297057 -198.56864736 397.56675009 -206 395 C-206.6290625 394.78649902 -207.258125 394.57299805 -207.90625 394.35302734 C-226.09445743 388.11480763 -242.84491452 379.62643708 -258.77734375 368.8828125 C-259.51049805 368.39200195 -260.24365234 367.90119141 -260.99902344 367.39550781 C-262.74955771 366.1746618 -264.42047009 364.84124295 -266.07421875 363.4921875 C-269.01157373 361.63541145 -269.01157373 361.63541145 -272.6796875 362.5625 C-274.08481852 363.02166766 -275.48299592 363.50245323 -276.875 364 C-302.82340288 372.0730152 -333.4115447 375.09148912 -360 368 C-360.84626953 367.78005371 -361.69253906 367.56010742 -362.56445312 367.33349609 C-386.43003323 361.04664452 -386.43003323 361.04664452 -394 356 C-394 355.01 -394 354.02 -394 353 C-392.52853516 352.30777344 -392.52853516 352.30777344 -391.02734375 351.6015625 C-366.069634 339.63720314 -348.78857162 324.33276393 -334.75 300.4375 C-334.35466064 299.78305908 -333.95932129 299.12861816 -333.55200195 298.4543457 C-331.97338688 295.65124806 -331.00939847 293.44736732 -330.94140625 290.2109375 C-332.55896737 285.30453441 -334.8722443 280.79756263 -337.1875 276.1875 C-348.31885998 253.39061817 -353.99963361 230.15260418 -357 205 C-357.19916016 203.42798828 -357.19916016 203.42798828 -357.40234375 201.82421875 C-359.92544561 177.94115871 -357.49500227 153.30984983 -352 130 C-351.84869629 129.31405762 -351.69739258 128.62811523 -351.54150391 127.92138672 C-348.3532746 113.58545813 -343.0013092 100.37365898 -337 87 C-336.66629395 86.24589844 -336.33258789 85.49179688 -335.98876953 84.71484375 C-328.74101818 68.53881427 -318.42373288 53.50077522 -307 40 C-306.29746094 39.10410156 -305.59492188 38.20820312 -304.87109375 37.28515625 C-300.43220262 31.65741428 -295.79702145 26.74384523 -290.359375 22.0703125 C-287.7903783 19.81606043 -285.40906507 17.42386732 -283 15 C-281.19980514 13.29937924 -279.38705939 11.6119538 -277.5625 9.9375 C-276.65628906 9.10089844 -275.75007813 8.26429687 -274.81640625 7.40234375 C-272.00048259 5.00041164 -269.10184121 3.01333229 -266 1 C-264.34884644 -0.22201063 -262.70303346 -1.45126862 -261.0625 -2.6875 C-184.39780464 -58.19273944 -75.66309231 -55.54857529 0 0 Z " fill="#2f80ed" transform="translate(401,68)"/>
<path d="M0 0 C1.98 0 3.96 0 6 0 C6 0.33 6 0.66 6 1 C7.27617187 1.06058594 8.55234375 1.12117188 9.8671875 1.18359375 C11.53647016 1.26799568 13.20574037 1.35264386 14.875 1.4375 C15.71675781 1.47681641 16.55851562 1.51613281 17.42578125 1.55664062 C18.23144531 1.59853516 19.03710938 1.64042969 19.8671875 1.68359375 C20.98262939 1.73858032 20.98262939 1.73858032 22.12060547 1.79467773 C24 2 24 2 26 3 C31.01443314 3.25163091 36.04216696 3.19125503 41.0625 3.1875 C41.78908813 3.18888977 42.51567627 3.19027954 43.26428223 3.19171143 C52.96614341 3.20112549 62.42959993 2.85311702 72.015625 1.2421875 C75.13522984 0.98902585 76.43404275 1.28512758 79 3 C69.0109217 4.45939726 59.09575246 5.58306627 49 6 C48.31019043 6.02868164 47.62038086 6.05736328 46.90966797 6.08691406 C31.56214843 6.63417384 14.86750394 6.05159686 0 2 C0 1.34 0 0.68 0 0 Z " fill="#78AACC" transform="translate(226,469)"/>
<path d="M0 0 C0.33 0.66 0.66 1.32 1 2 C1.66 2 2.32 2 3 2 C2.36949114 6.87211393 0.32162911 10.80260078 -1.875 15.125 C-2.22691406 15.84042969 -2.57882812 16.55585938 -2.94140625 17.29296875 C-3.28816406 17.98261719 -3.63492187 18.67226563 -3.9921875 19.3828125 C-4.30526855 20.00559082 -4.61834961 20.62836914 -4.94091797 21.27001953 C-6.08748446 23.14290338 -7.39411074 24.51162874 -9 26 C-9.28875 25.38125 -9.5775 24.7625 -9.875 24.125 C-10.93720042 21.86674235 -10.93720042 21.86674235 -13 20 C-11.71034824 18.62437146 -10.37310707 17.29233607 -9 16 C-8.34 16 -7.68 16 -7 16 C-7 16.66 -7 17.32 -7 18 C-6.34 18 -5.68 18 -5 18 C-5 17.01 -5 16.02 -5 15 C-4.34 15 -3.68 15 -3 15 C-3.33 11.37 -3.66 7.74 -4 4 C-3.01 3.67 -2.02 3.34 -1 3 C-0.67 2.01 -0.34 1.02 0 0 Z " fill="#3F85BA" transform="translate(469,340)"/>
<path d="M0 0 C0 1.32 0 2.64 0 4 C-2.27142448 2.90635117 -4.13606515 1.88897286 -6.1015625 0.28515625 C-10.42821302 -1.63326426 -13.34493775 -0.20037434 -17.6875 1.25 C-24.19254438 3.25595213 -30.1608776 4.66907472 -37 5 C-33.65651496 2.04452434 -30.64637972 1.25827672 -26.3125 0.375 C-22.33945271 -0.14631983 -22.33945271 -0.14631983 -19 -2 C-11.34004426 -3.32576157 -6.95689228 -3.27383166 0 0 Z " fill="#5A94BF" transform="translate(141,431)"/>
<path d="M0 0 C2.125 1.875 2.125 1.875 4 4 C4 4.66 4 5.32 4 6 C5.010625 6.12375 6.02125 6.2475 7.0625 6.375 C10.87937612 6.98085335 14.31500112 7.87193912 18 9 C18 9.99 18 10.98 18 12 C10.19816942 10.48996827 2.67284549 8.44856366 -4 4 C-4 3.01 -4 2.02 -4 1 C-2 0 -2 0 0 0 Z " fill="#689EC4" transform="translate(11,420)"/>
<path d="M0 0 C0.33 0.66 0.66 1.32 1 2 C-0.55502993 5.63647077 -2.53778262 8.90728104 -5 12 C-8.375 13.125 -8.375 13.125 -11 13 C-11 13.66 -11 14.32 -11 15 C-12.32 14.67 -13.64 14.34 -15 14 C-14.48050781 13.55269531 -13.96101563 13.10539062 -13.42578125 12.64453125 C-9.472211 9.21712932 -5.64567583 5.75290159 -2 2 C-1.34 1.34 -0.68 0.68 0 0 Z " fill="#4789B9" transform="translate(120,81)"/>
<path d="M0 0 C-3.31359366 2.20906244 -6.62755721 3.34349593 -10.375 4.5625 C-11.365 4.89411133 -11.365 4.89411133 -12.375 5.23242188 C-15.89029408 6.39134851 -19.35089347 7.37302996 -23 8 C-22.34 7.67 -21.68 7.34 -21 7 C-21 6.01 -21 5.02 -21 4 C-7.55125285 -0.59225513 -7.55125285 -0.59225513 0 0 Z " fill="#508CBA" transform="translate(219,32)"/>
<path d="M0 0 C1.1725131 0.95117134 2.33787015 1.91117009 3.5 2.875 C4.47453125 3.67550781 4.47453125 3.67550781 5.46875 4.4921875 C5.9740625 4.98976563 6.479375 5.48734375 7 6 C7 6.66 7 7.32 7 8 C7.598125 8.268125 8.19625 8.53625 8.8125 8.8125 C10.97224808 9.98493467 12.35790256 11.19369282 14 13 C13.67 13.66 13.34 14.32 13 15 C12.01 15 11.02 15 10 15 C10 13.68 10 12.36 10 11 C8.02 11.33 6.04 11.66 4 12 C4 9.69 4 7.38 4 5 C2.35 5 0.7 5 -1 5 C-0.34 4.67 0.32 4.34 1 4 C0.67 2.68 0.34 1.36 0 0 Z " fill="#5E9AC4" transform="translate(421,85)"/>
<path d="M0 0 C0.33 0.66 0.66 1.32 1 2 C-0.21484375 4.3828125 -0.21484375 4.3828125 -1.9375 7.125 C-2.50339844 8.03507812 -3.06929688 8.94515625 -3.65234375 9.8828125 C-4.09707031 10.58148438 -4.54179687 11.28015625 -5 12 C-5.45375 11.38125 -5.9075 10.7625 -6.375 10.125 C-7.97108919 7.94080167 -7.97108919 7.94080167 -10 6 C-8.71034824 4.62437146 -7.37310707 3.29233607 -6 2 C-5.34 2 -4.68 2 -4 2 C-4 2.66 -4 3.32 -4 4 C-3.34 4 -2.68 4 -2 4 C-2 3.01 -2 2.02 -2 1 C-1.34 0.67 -0.68 0.34 0 0 Z " fill="#468BBE" transform="translate(466,354)"/>
<path d="M0 0 C2.16796875 0.375 2.16796875 0.375 4 1 C3.09066991 2.27609323 2.17217147 3.54565553 1.25 4.8125 C0.73953125 5.52019531 0.2290625 6.22789062 -0.296875 6.95703125 C-2.02482358 9.02977691 -3.78526476 10.47375854 -6 12 C-5.74719023 7.70223394 -5.34956023 5.45348354 -2.6875 2 C-1.800625 1.34 -0.91375 0.68 0 0 Z " fill="#4187BB" transform="translate(438,391)"/>
<path d="M0 0 C1.32 0.99 2.64 1.98 4 3 C2.33846988 8.85659906 0.52958084 14.4590134 -2 20 C-2.33 20 -2.66 20 -3 20 C-3.27727264 14.45454719 -3.31459352 12.41945803 0 8 C0.26873123 5.28107229 0.13709416 2.74188329 0 0 Z " fill="#5593BF" transform="translate(476,321)"/>
<path d="M0 0 C0.6484375 1.84375 0.6484375 1.84375 1 4 C-0.62339805 5.70884005 -2.29319053 7.37446717 -4 9 C-4.86119134 11.17346568 -4.86119134 11.17346568 -5 13 C-5.99 13 -6.98 13 -8 13 C-8.33 13.99 -8.66 14.98 -9 16 C-11.5625 17.1875 -11.5625 17.1875 -14 18 C-13.175 17.071875 -12.35 16.14375 -11.5 15.1875 C-7.34916717 10.36141207 -3.69105568 5.18059338 0 0 Z " fill="#669DC4" transform="translate(59,380)"/>
<path d="M0 0 C4.95998472 0.61632946 8.93671966 2.79835629 13.3125 5.0625 C14.05306641 5.43955078 14.79363281 5.81660156 15.55664062 6.20507812 C17.37387522 7.13128157 19.18732404 8.06490629 21 9 C20.34 9.66 19.68 10.32 19 11 C17.35 10.34 15.7 9.68 14 9 C14 8.34 14 7.68 14 7 C12.68 7 11.36 7 10 7 C10 6.34 10 5.68 10 5 C8.72125 4.690625 7.4425 4.38125 6.125 4.0625 C3.89898325 3.52394756 2.05260001 3.0263 0 2 C0 1.34 0 0.68 0 0 Z " fill="#77A9CC" transform="translate(357,44)"/>
<path d="M0 0 C4.68187876 1.31981745 8.00374921 3.19795672 11.875 6.125 C13.32519531 7.21167969 13.32519531 7.21167969 14.8046875 8.3203125 C15.89136719 9.15175781 15.89136719 9.15175781 17 10 C16.34 10.66 15.68 11.32 15 12 C14.34 11.67 13.68 11.34 13 11 C13 10.34 13 9.68 13 9 C12.1646875 8.8453125 12.1646875 8.8453125 11.3125 8.6875 C8.5230899 7.85821592 6.3860936 6.65700944 4 5 C4 4.34 4 3.68 4 3 C2.68 2.67 1.36 2.34 0 2 C0 1.34 0 0.68 0 0 Z " fill="#649DC4" transform="translate(378,54)"/>
<path d="M0 0 C4.29 0.33 8.58 0.66 13 1 C13 1.66 13 2.32 13 3 C13.71027344 3.04898437 14.42054688 3.09796875 15.15234375 3.1484375 C16.53099609 3.26058594 16.53099609 3.26058594 17.9375 3.375 C19.31228516 3.47941406 19.31228516 3.47941406 20.71484375 3.5859375 C21.84599609 3.79089844 21.84599609 3.79089844 23 4 C23.33 4.66 23.66 5.32 24 6 C15.61843511 5.61375277 7.98734511 3.4744657 0 1 C0 0.67 0 0.34 0 0 Z " fill="#7FADCD" transform="translate(200,464)"/>
<path d="M0 0 C1.32 0.33 2.64 0.66 4 1 C2.61811547 4.21043882 1.07578097 6.04936365 -1.625 8.25 C-2.25664062 8.77078125 -2.88828125 9.2915625 -3.5390625 9.828125 C-4.02117187 10.21484375 -4.50328125 10.6015625 -5 11 C-4.44271087 7.65626525 -3.64826111 4.96687001 -2 2 C-1.34 2 -0.68 2 0 2 C0 1.34 0 0.68 0 0 Z " fill="#468ABD" transform="translate(421,408)"/>
<path d="M0 0 C0.33 0 0.66 0 1 0 C2.32915021 7.97490128 2.08801359 15.94186719 2 24 C1.67 24 1.34 24 1 24 C-1.39473684 7.57894737 -1.39473684 7.57894737 -1 1 C-0.67 0.67 -0.34 0.34 0 0 Z " fill="#699DC4" transform="translate(490,219)"/>
<path d="M0 0 C0 0.66 0 1.32 0 2 C0.66 2.33 1.32 2.66 2 3 C-2.455 5.97 -2.455 5.97 -7 9 C-7 7.35 -7 5.7 -7 4 C-6.34 4 -5.68 4 -5 4 C-5 3.34 -5 2.68 -5 2 C-2 0 -2 0 0 0 Z " fill="#4A8EC2" transform="translate(408,422)"/>
<path d="M0 0 C3.63559661 3.43361902 6.36113346 6.7973607 9 11 C4.73525752 10.52613972 2.64247101 8.22968679 0 5 C-0.3125 2.1875 -0.3125 2.1875 0 0 Z " fill="#5C94BD" transform="translate(442,108)"/>
<path d="M0 0 C0.66 0 1.32 0 2 0 C2.33 1.65 2.66 3.3 3 5 C4.65 4.34 6.3 3.68 8 3 C7.34 5.97 6.68 8.94 6 12 C3.25207517 8.59780735 0 4.51535412 0 0 Z " fill="#498CBE" transform="translate(61,337)"/>
<path d="M0 0 C3.30979968 2.81332973 5.1048141 6.141943 7 10 C6.75 12.4375 6.75 12.4375 6 14 C5.34 13.67 4.68 13.34 4 13 C4 11.68 4 10.36 4 9 C3.34 9 2.68 9 2 9 C0.14223235 5.86501708 -0.20140476 3.62528568 0 0 Z " fill="#5B94BE" transform="translate(461,135)"/>
<path d="M0 0 C0 0.33 0 0.66 0 1 C-4.4378561 2.11165232 -8.76956386 2.11527763 -13.3125 2.0625 C-14.05306641 2.05798828 -14.79363281 2.05347656 -15.55664062 2.04882812 C-17.37112899 2.03712175 -19.18557534 2.01918898 -21 2 C-21 1.67 -21 1.34 -21 1 C-18.81457668 0.63323686 -16.62651594 0.282173 -14.4375 -0.0625 C-13.21933594 -0.25972656 -12.00117188 -0.45695312 -10.74609375 -0.66015625 C-6.94539951 -1.00495333 -3.7409767 -0.68849378 0 0 Z " fill="#6196BD" transform="translate(305,471)"/>
<path d="M0 0 C2.97 0.495 2.97 0.495 6 1 C1.76486783 4.96189783 -2.547001 6.43181728 -8 8 C-8 7.34 -8 6.68 -8 6 C-7.34 6 -6.68 6 -6 6 C-6 5.34 -6 4.68 -6 4 C-4.02 4 -2.04 4 0 4 C0 2.68 0 1.36 0 0 Z " fill="#679CC4" transform="translate(379,441)"/>
<path d="M0 0 C4.86896303 0.59619955 9.32790951 1.56976822 14 3 C14 3.99 14 4.98 14 6 C12.54096742 5.69078116 11.08279278 5.37751201 9.625 5.0625 C8.81289063 4.88847656 8.00078125 4.71445312 7.1640625 4.53515625 C5 4 5 4 3 3 C3 2.34 3 1.68 3 1 C2.01 0.67 1.02 0.34 0 0 Z " fill="#4E8CB9" transform="translate(15,426)"/>
<path d="M0 0 C0.66 0.99 1.32 1.98 2 3 C2 2.34 2 1.68 2 1 C2.66 1 3.32 1 4 1 C3.67 2.65 3.34 4.3 3 6 C1.02 6.66 -0.96 7.32 -3 8 C-1.125 1.125 -1.125 1.125 0 0 Z " fill="#428BC2" transform="translate(74,136)"/>
<path d="M0 0 C0.66 0 1.32 0 2 0 C5 5.75 5 5.75 5 8 C4.34 8 3.68 8 3 8 C3 7.34 3 6.68 3 6 C1.02 6.99 1.02 6.99 -1 8 C-2.2077558 4.37673261 -1.54311128 3.35853631 0 0 Z " fill="#4B8CBC" transform="translate(468,150)"/>
<path d="M0 0 C0.66 0.33 1.32 0.66 2 1 C0.37660195 2.70884005 -1.29319053 4.37446717 -3 6 C-3.66 6 -4.32 6 -5 6 C-5 6.66 -5 7.32 -5 8 C-6.65 8 -8.3 8 -10 8 C-6.97727468 4.74475735 -3.74281699 2.38179263 0 0 Z " fill="#6EA1C7" transform="translate(149,59)"/>
<path d="M0 0 C3.00183319 1.50091659 3.3670758 3.79832283 4.46875 6.85546875 C5.19489312 9.78673765 4.79261786 12.11775324 4 15 C1.81257986 11.7188698 1.45557194 9.66915644 0.875 5.8125 C0.70742188 4.72582031 0.53984375 3.63914062 0.3671875 2.51953125 C0.24601562 1.68808594 0.12484375 0.85664063 0 0 Z " fill="#6DA1C7" transform="translate(50,303)"/>
<path d="M0 0 C4.455 0.99 4.455 0.99 9 2 C9 2.99 9 3.98 9 5 C10.32 5.33 11.64 5.66 13 6 C12.01 6.495 12.01 6.495 11 7 C8.65234375 6.07421875 8.65234375 6.07421875 5.9375 4.6875 C5.03902344 4.23761719 4.14054688 3.78773438 3.21484375 3.32421875 C1 2 1 2 0 0 Z " fill="#6FA5CA" transform="translate(152,442)"/>
<path d="M0 0 C0.99 0.33 1.98 0.66 3 1 C3 1.66 3 2.32 3 3 C4.98 2.67 6.96 2.34 9 2 C6.11912454 4.40072955 3.43595166 6.47291037 0 8 C0.2784375 7.13375 0.2784375 7.13375 0.5625 6.25 C1.04023546 3.79307475 0.75729364 2.35602466 0 0 Z " fill="#5493C3" transform="translate(385,434)"/>
<path d="M0 0 C0.33 0 0.66 0 1 0 C0.85851011 1.6045556 0.71164314 3.20863767 0.5625 4.8125 C0.48128906 5.70582031 0.40007813 6.59914062 0.31640625 7.51953125 C0 10 0 10 -1 13 C-1.66 13 -2.32 13 -3 13 C-2.52060632 8.28596212 -2.03165952 4.33420699 0 0 Z " fill="#679CC3" transform="translate(55,177)"/>
<path d="M0 0 C1.125 3.75 1.125 3.75 0 6 C-0.66 6 -1.32 6 -2 6 C-2.2165625 7.175625 -2.2165625 7.175625 -2.4375 8.375 C-3 11 -3 11 -4 13 C-4.66 13 -5.32 13 -6 13 C-4.58707905 8.1725201 -2.57025846 4.2837641 0 0 Z " fill="#7BAACA" transform="translate(70,144)"/>
<path d="M0 0 C0.66 0.66 1.32 1.32 2 2 C1.9375 3.875 1.9375 3.875 1 6 C-1.5625 8.25 -1.5625 8.25 -4 10 C-4 5.75354935 -2.18249194 3.61475228 0 0 Z " fill="#6099C4" transform="translate(65,370)"/>
<path d="M0 0 C2.31 1.98 4.62 3.96 7 6 C6.67 6.66 6.34 7.32 6 8 C4.35 7.67 2.7 7.34 1 7 C0.67 4.69 0.34 2.38 0 0 Z " fill="#5793C0" transform="translate(435,100)"/>
<path d="M0 0 C8.57142857 0.71428571 8.57142857 0.71428571 12 4 C9.5332355 4.88336837 8.36140628 5.1312406 5.859375 4.22265625 C5.16328125 3.83980469 4.4671875 3.45695312 3.75 3.0625 C3.04359375 2.68222656 2.3371875 2.30195313 1.609375 1.91015625 C1.07828125 1.60980469 0.5471875 1.30945313 0 1 C0 0.67 0 0.34 0 0 Z " fill="#679EC5" transform="translate(171,452)"/>
<path d="M0 0 C1.32 0.33 2.64 0.66 4 1 C3.67 2.32 3.34 3.64 3 5 C0.03 4.505 0.03 4.505 -3 4 C-2.01 2.68 -1.02 1.36 0 0 Z " fill="#4C8DBC" transform="translate(124,77)"/>
<path d="M0 0 C1.32 0 2.64 0 4 0 C4 0.66 4 1.32 4 2 C-0.95 3.485 -0.95 3.485 -6 5 C-6 4.01 -6 3.02 -6 2 C-4.02 2 -2.04 2 0 2 C0 1.34 0 0.68 0 0 Z " fill="#6197C0" transform="translate(348,457)"/>
<path d="M0 0 C2.64 0.66 5.28 1.32 8 2 C8 3.32 8 4.64 8 6 C4.63408134 4.55746343 2.48952921 2.66735273 0 0 Z " fill="#6D9EC1" transform="translate(133,429)"/>
<path d="M0 0 C2.475 0.99 2.475 0.99 5 2 C3.6875 3.5 3.6875 3.5 2 5 C1.01 5 0.02 5 -1 5 C-1.33 4.01 -1.66 3.02 -2 2 C-1.34 1.34 -0.68 0.68 0 0 Z " fill="#2E7CB9" transform="translate(423,405)"/>
<path d="M0 0 C0.33 1.32 0.66 2.64 1 4 C0.34 4 -0.32 4 -1 4 C-1.33 5.32 -1.66 6.64 -2 8 C-3.32 8.33 -4.64 8.66 -6 9 C-4.47291037 5.56404834 -2.40072955 2.88087546 0 0 Z " fill="#669DC2" transform="translate(94,108)"/>
<path d="M0 0 C3.3 0.99 6.6 1.98 10 3 C9.01 3.66 8.02 4.32 7 5 C7 4.34 7 3.68 7 3 C5.35 3 3.7 3 2 3 C2 3.66 2 4.32 2 5 C1.34 5 0.68 5 0 5 C0 3.35 0 1.7 0 0 Z " fill="#5E99C3" transform="translate(345,39)"/>
<path d="M0 0 C0.82638376 2.89234315 1 4.88742431 1 8 C0.01 8 -0.98 8 -2 8 C-2.33 9.32 -2.66 10.64 -3 12 C-4 10 -4 10 -3.22265625 7.6171875 C-2.83980469 6.71226562 -2.45695312 5.80734375 -2.0625 4.875 C-1.68222656 3.96492187 -1.30195312 3.05484375 -0.91015625 2.1171875 C-0.60980469 1.41851562 -0.30945312 0.71984375 0 0 Z " fill="#73ABCE" transform="translate(60,164)"/>
<path d="M0 0 C0.99 0 1.98 0 3 0 C2.60196439 2.88575819 2.20990931 3.82189513 -0.0625 5.75 C-0.701875 6.1625 -1.34125 6.575 -2 7 C-1.125 1.125 -1.125 1.125 0 0 Z " fill="#5390BD" transform="translate(434,396)"/>
<path d="M0 0 C0.99 0 1.98 0 3 0 C2.34 3.3 1.68 6.6 1 10 C0.67 10 0.34 10 0 10 C0 6.7 0 3.4 0 0 Z " fill="#639CC6" transform="translate(483,304)"/>
<path d="M0 0 C0.33 0.66 0.66 1.32 1 2 C-0.8125 4.5 -0.8125 4.5 -3 7 C-3.99 7 -4.98 7 -6 7 C-4.60667426 3.63279613 -3.0210714 2.0140476 0 0 Z " fill="#6B9DC0" transform="translate(120,81)"/>
<path d="M0 0 C0 0.66 0 1.32 0 2 C-3.3 2.33 -6.6 2.66 -10 3 C-5.78492722 -0.16130459 -4.93928888 -0.3367697 0 0 Z " fill="#66A0C8" transform="translate(114,433)"/>
<path d="M0 0 C2.6855594 2.6855594 3.06049974 5.37621328 4 9 C3.01 9 2.02 9 1 9 C0.67 6.03 0.34 3.06 0 0 Z " fill="#699FC5" transform="translate(473,158)"/>
<path d="M0 0 C0.6875 1.8125 0.6875 1.8125 1 4 C-0.25 5.75 -0.25 5.75 -2 7 C-2.99 7 -3.98 7 -5 7 C-3.70700306 4.11562221 -2.34058637 2.12780579 0 0 Z " fill="#669BC3" transform="translate(100,101)"/>
<path d="M0 0 C3.73487777 0.4979837 5.81237635 0.87491756 9 3 C6.03 3 3.06 3 0 3 C0 2.01 0 1.02 0 0 Z " fill="#5F9AC4" transform="translate(336,36)"/>
<path d="M0 0 C0.33 1.32 0.66 2.64 1 4 C-0.98 4.99 -2.96 5.98 -5 7 C-3.75023244 3.34683329 -3.32901247 2.21934164 0 0 Z " fill="#5590BC" transform="translate(84,123)"/>
<path d="M0 0 C2.875 -0.1875 2.875 -0.1875 6 0 C6.66 0.99 7.32 1.98 8 3 C5.36 2.67 2.72 2.34 0 2 C0 1.34 0 0.68 0 0 Z " fill="#5E99C1" transform="translate(33,432)"/>
<path d="M0 0 C1.32 0.66 2.64 1.32 4 2 C2.68 3.32 1.36 4.64 0 6 C0 5.34 0 4.68 0 4 C-0.66 3.67 -1.32 3.34 -2 3 C-1.34 2.01 -0.68 1.02 0 0 Z " fill="#3E84BA" transform="translate(428,401)"/>
<path d="M0 0 C0.66 0 1.32 0 2 0 C2.33 1.98 2.66 3.96 3 6 C1.68 6 0.36 6 -1 6 C-0.67 4.02 -0.34 2.04 0 0 Z " fill="#5290BE" transform="translate(477,170)"/>
<path d="M0 0 C3.65316671 1.24976756 4.78065836 1.67098753 7 5 C4.625 4.75 4.625 4.75 2 4 C0.6875 1.9375 0.6875 1.9375 0 0 Z " fill="#6497BD" transform="translate(395,65)"/>
<path d="M0 0 C3.68754757 0.49831724 5.60490662 1.10067643 8 4 C2.25 3.125 2.25 3.125 0 2 C0 1.34 0 0.68 0 0 Z " fill="#629BC2" transform="translate(357,44)"/>
<path d="M0 0 C2.33944736 0.28730055 4.6739143 0.61936779 7 1 C6.401875 1.28875 5.80375 1.5775 5.1875 1.875 C2.80672208 3.04742026 2.80672208 3.04742026 0 5 C-0.5625 3.0625 -0.5625 3.0625 -1 1 C-0.67 0.67 -0.34 0.34 0 0 Z " fill="#2471B0" transform="translate(329,35)"/>
</svg>
