<svg t="1706863605575" class="icon" viewBox="0 0 1024 1024" version="1.1" xmlns="http://www.w3.org/2000/svg" p-id="1608" width="16" height="16"><path d="M512 96c229.76 0 416 186.24 416 416s-186.24 416-416 416S96 741.76 96 512 282.24 96 512 96z m122.496 576H389.546667c7.936 37.12 18.56 70.4 31.061333 98.56 14.336 32.256 30.634667 56.448 47.061333 72.106667 16.298667 15.488 31.232 21.333333 44.373334 21.333333 13.141333 0 28.074667-5.845333 44.373333-21.333333 16.426667-15.658667 32.725333-39.850667 47.061333-72.106667 10.752-24.149333 20.053333-52.053333 27.477334-82.901333l3.584-15.658667z m-310.314667 0H198.4a353.28 353.28 0 0 0 186.581333 168.405333 371.2 371.2 0 0 1-22.912-43.861333c-13.994667-31.573333-25.6-67.754667-34.346666-107.392l-3.541334-17.152z m501.418667 0h-125.781333c-9.002667 46.336-21.888 88.490667-37.888 124.544a371.2 371.2 0 0 1-22.912 43.861333A353.28 353.28 0 0 0 819.2 683.946667l6.4-11.946667z m-511.104-256h-141.226667A352.256 352.256 0 0 0 160 512c0 33.28 4.608 65.493333 13.226667 96h141.269333A880.384 880.384 0 0 1 309.333333 512c0-32.938667 1.792-65.109333 5.162667-96z m330.581333 0H378.88A812.373333 812.373333 0 0 0 373.333333 512c0 33.365333 1.962667 65.536 5.589334 96h266.154666A812.373333 812.373333 0 0 0 650.666667 512c0-33.365333-1.962667-65.536-5.589334-96z m205.653334 0h-141.226667c3.413333 30.890667 5.162667 63.061333 5.162667 96s-1.792 65.109333-5.162667 96h141.226667c8.661333-30.506667 13.269333-62.72 13.269333-96s-4.608-65.493333-13.226667-96zM384.981333 183.594667A353.28 353.28 0 0 0 198.4 352h125.781333c9.002667-46.336 21.888-88.490667 37.888-124.544a371.2 371.2 0 0 1 22.912-43.861333zM512 160c-13.141333 0-28.074667 5.845333-44.373333 21.333333-16.426667 15.658667-32.725333 39.850667-47.061334 72.106667-10.752 24.149333-20.053333 52.053333-27.477333 82.901333l-3.584 15.658667h244.992c-7.936-37.12-18.56-70.4-31.061333-98.56-14.336-32.256-30.634667-56.448-47.061334-72.106667-16.298667-15.488-31.232-21.333333-44.373333-21.333333z m127.018667 23.594667a371.2 371.2 0 0 1 22.912 43.861333c13.994667 31.573333 25.6 67.754667 34.346666 107.392l3.541334 17.152h125.781333a353.28 353.28 0 0 0-186.581333-168.405333z" fill="#000000" p-id="1609"></path></svg>